<?xml version="1.0" encoding="UTF-8"?>
<!DOCTYPE svg
PUBLIC "-//W3C//DTD SVG 1.1//EN"
       "http://www.w3.org/Graphics/SVG/1.1/DTD/svg11.dtd">
<svg viewBox="101 5 1431 764" width="1330px" height="759px" xmlns="http://www.w3.org/2000/svg" version="1.1">
   <line x1="1035" y1="84" x2="1045" y2="84" style="stroke:#0bf;stroke-width:1;"/>
   <line x1="1131" y1="559" x2="1121" y2="559" style="stroke:#0bf;stroke-width:1;"/>
   <line x1="1045" y1="84" x2="1131" y2="559" style="stroke:#0bf;stroke-width:1;"/>
   <line x1="1042.5" y1="84" x2="1038.9644660941" y2="87.535533905933" style="stroke:#0bf;stroke-width:2;"/>
   <line x1="1042.5" y1="84" x2="1038.9644660941" y2="80.464466094067" style="stroke:#0bf;stroke-width:2;"/>
   <line x1="1126" y1="559" x2="1129.5355339059" y2="562.53553390593" style="stroke:#0bf;stroke-width:2;"/>
   <line x1="1126" y1="559" x2="1129.5355339059" y2="555.46446609407" style="stroke:#0bf;stroke-width:2;"/>
   <line x1="728" y1="104" x2="718" y2="104" style="stroke:#333;stroke-width:1;"/>
   <line x1="741" y1="564" x2="731" y2="564" style="stroke:#333;stroke-width:1;"/>
   <line x1="718" y1="104" x2="741" y2="564" style="stroke:#333;stroke-width:1;"/>
   <line x1="720.5" y1="104" x2="724.03553390593" y2="107.53553390593" style="stroke:#333;stroke-width:2;"/>
   <line x1="720.5" y1="104" x2="724.03553390593" y2="100.46446609407" style="stroke:#333;stroke-width:2;"/>
   <line x1="736" y1="564" x2="739.53553390593" y2="567.53553390593" style="stroke:#333;stroke-width:2;"/>
   <line x1="736" y1="564" x2="739.53553390593" y2="560.46446609407" style="stroke:#333;stroke-width:2;"/>
   <line x1="603" y1="90" x2="613" y2="90" style="stroke:#cb0;stroke-width:1;"/>
   <line x1="718" y1="64" x2="728" y2="64" style="stroke:#cb0;stroke-width:1;"/>
   <line x1="613" y1="90" x2="718" y2="64" style="stroke:#cb0;stroke-width:1;"/>
   <line x1="610.5" y1="90" x2="606.96446609407" y2="93.535533905933" style="stroke:#cb0;stroke-width:2;"/>
   <line x1="610.5" y1="90" x2="606.96446609407" y2="86.464466094067" style="stroke:#cb0;stroke-width:2;"/>
   <line x1="723" y1="64" x2="719.46446609407" y2="67.535533905933" style="stroke:#cb0;stroke-width:2;"/>
   <line x1="723" y1="64" x2="719.46446609407" y2="60.464466094067" style="stroke:#cb0;stroke-width:2;"/>
   <line x1="603" y1="70" x2="613" y2="70" style="stroke:#bbb;stroke-width:1;"/>
   <line x1="512" y1="564" x2="522" y2="564" style="stroke:#bbb;stroke-width:1;"/>
   <line x1="613" y1="70" x2="512" y2="564" style="stroke:#bbb;stroke-width:1;"/>
   <line x1="610.5" y1="70" x2="606.96446609407" y2="73.535533905933" style="stroke:#bbb;stroke-width:2;"/>
   <line x1="610.5" y1="70" x2="606.96446609407" y2="66.464466094067" style="stroke:#bbb;stroke-width:2;"/>
   <line x1="517" y1="564" x2="513.46446609407" y2="567.53553390593" style="stroke:#bbb;stroke-width:2;"/>
   <line x1="517" y1="564" x2="513.46446609407" y2="560.46446609407" style="stroke:#bbb;stroke-width:2;"/>
   <line x1="337" y1="495" x2="347" y2="495" style="stroke:#0b0;stroke-width:1;"/>
   <line x1="512" y1="564" x2="522" y2="564" style="stroke:#0b0;stroke-width:1;"/>
   <line x1="347" y1="495" x2="512" y2="564" style="stroke:#0b0;stroke-width:1;"/>
   <line x1="344.5" y1="495" x2="340.96446609407" y2="498.53553390593" style="stroke:#0b0;stroke-width:2;"/>
   <line x1="344.5" y1="495" x2="340.96446609407" y2="491.46446609407" style="stroke:#0b0;stroke-width:2;"/>
   <line x1="517" y1="564" x2="513.46446609407" y2="567.53553390593" style="stroke:#0b0;stroke-width:2;"/>
   <line x1="517" y1="564" x2="513.46446609407" y2="560.46446609407" style="stroke:#0b0;stroke-width:2;"/>
   <line x1="319" y1="209" x2="329" y2="209" style="stroke:#0b0;stroke-width:1;"/>
   <line x1="881" y1="559" x2="891" y2="559" style="stroke:#0b0;stroke-width:1;"/>
   <line x1="329" y1="209" x2="881" y2="559" style="stroke:#0b0;stroke-width:1;"/>
   <line x1="326.5" y1="209" x2="322.96446609407" y2="212.53553390593" style="stroke:#0b0;stroke-width:2;"/>
   <line x1="326.5" y1="209" x2="322.96446609407" y2="205.46446609407" style="stroke:#0b0;stroke-width:2;"/>
   <line x1="886" y1="559" x2="882.46446609407" y2="562.53553390593" style="stroke:#0b0;stroke-width:2;"/>
   <line x1="886" y1="559" x2="882.46446609407" y2="555.46446609407" style="stroke:#0b0;stroke-width:2;"/>
   <line x1="319" y1="189" x2="329" y2="189" style="stroke:#bbb;stroke-width:1;"/>
   <line x1="512" y1="564" x2="522" y2="564" style="stroke:#bbb;stroke-width:1;"/>
   <line x1="329" y1="189" x2="512" y2="564" style="stroke:#bbb;stroke-width:1;"/>
   <line x1="326.5" y1="189" x2="322.96446609407" y2="192.53553390593" style="stroke:#bbb;stroke-width:2;"/>
   <line x1="326.5" y1="189" x2="322.96446609407" y2="185.46446609407" style="stroke:#bbb;stroke-width:2;"/>
   <line x1="517" y1="564" x2="513.46446609407" y2="567.53553390593" style="stroke:#bbb;stroke-width:2;"/>
   <line x1="517" y1="564" x2="513.46446609407" y2="560.46446609407" style="stroke:#bbb;stroke-width:2;"/>
   <line x1="1166" y1="210" x2="1156" y2="210" style="stroke:#bbb;stroke-width:1;"/>
   <line x1="1131" y1="559" x2="1121" y2="559" style="stroke:#bbb;stroke-width:1;"/>
   <line x1="1156" y1="210" x2="1131" y2="559" style="stroke:#bbb;stroke-width:1;"/>
   <line x1="1158.5" y1="210" x2="1162.0355339059" y2="213.53553390593" style="stroke:#bbb;stroke-width:2;"/>
   <line x1="1158.5" y1="210" x2="1162.0355339059" y2="206.46446609407" style="stroke:#bbb;stroke-width:2;"/>
   <line x1="1126" y1="559" x2="1129.5355339059" y2="562.53553390593" style="stroke:#bbb;stroke-width:2;"/>
   <line x1="1126" y1="559" x2="1129.5355339059" y2="555.46446609407" style="stroke:#bbb;stroke-width:2;"/>
   <line x1="1166" y1="190" x2="1156" y2="190" style="stroke:#333;stroke-width:1;"/>
   <line x1="741" y1="564" x2="731" y2="564" style="stroke:#333;stroke-width:1;"/>
   <line x1="1156" y1="190" x2="741" y2="564" style="stroke:#333;stroke-width:1;"/>
   <line x1="1158.5" y1="190" x2="1162.0355339059" y2="193.53553390593" style="stroke:#333;stroke-width:2;"/>
   <line x1="1158.5" y1="190" x2="1162.0355339059" y2="186.46446609407" style="stroke:#333;stroke-width:2;"/>
   <line x1="736" y1="564" x2="739.53553390593" y2="567.53553390593" style="stroke:#333;stroke-width:2;"/>
   <line x1="736" y1="564" x2="739.53553390593" y2="560.46446609407" style="stroke:#333;stroke-width:2;"/>
   <line x1="1166" y1="170" x2="1156" y2="170" style="stroke:#cb0;stroke-width:1;"/>
   <line x1="1045" y1="64" x2="1035" y2="64" style="stroke:#cb0;stroke-width:1;"/>
   <line x1="1156" y1="170" x2="1045" y2="64" style="stroke:#cb0;stroke-width:1;"/>
   <line x1="1158.5" y1="170" x2="1162.0355339059" y2="173.53553390593" style="stroke:#cb0;stroke-width:2;"/>
   <line x1="1158.5" y1="170" x2="1162.0355339059" y2="166.46446609407" style="stroke:#cb0;stroke-width:2;"/>
   <line x1="1040" y1="64" x2="1043.5355339059" y2="67.535533905933" style="stroke:#cb0;stroke-width:2;"/>
   <line x1="1040" y1="64" x2="1043.5355339059" y2="60.464466094067" style="stroke:#cb0;stroke-width:2;"/>
   <rect width="307" height="20" x="728" y="34" style="fill:#007;stroke:black;"/>
   <text width="307" height="20" x="733" y="48" style="fill:#fff;" font-family="Arial" font-size="16px"> appointments</text>
   <rect width="307" height="20" x="728" y="54" style="fill:#aea;stroke:black;"/>
   <text width="307" height="20" x="733" y="68" style="fill:black;" font-family="Arial" font-size="16px">APPOINTMENT_ID</text>
   <rect width="307" height="20" x="728" y="74" style="fill:none;stroke:black;"/>
   <text width="307" height="20" x="733" y="88" style="fill:black;" font-family="Arial" font-size="16px">APPOINTMENT_EMPLOYEE_ID</text>
   <rect width="307" height="20" x="728" y="94" style="fill:none;stroke:black;"/>
   <text width="307" height="20" x="733" y="108" style="fill:black;" font-family="Arial" font-size="16px">APPOINTMENT_PATIENT_ID</text>
   <rect width="307" height="20" x="728" y="114" style="fill:none;stroke:black;"/>
   <text width="307" height="20" x="733" y="128" style="fill:black;" font-family="Arial" font-size="16px">APPOINTMENT_DATETIME</text>
   <rect width="307" height="20" x="728" y="134" style="fill:none;stroke:black;"/>
   <text width="307" height="20" x="733" y="148" style="fill:black;" font-family="Arial" font-size="16px">APPOINTMENT_PATIENT_COMMENT</text>
   <rect width="307" height="20" x="728" y="154" style="fill:none;stroke:black;"/>
   <text width="307" height="20" x="733" y="168" style="fill:black;" font-family="Arial" font-size="16px">APPOINTMENT_EMPLOYEE_COMMENT</text>
   <rect width="230" height="20" x="891" y="529" style="fill:#007;stroke:black;"/>
   <text width="230" height="20" x="896" y="543" style="fill:#fff;" font-family="Arial" font-size="16px"> employees</text>
   <rect width="230" height="20" x="891" y="549" style="fill:#aea;stroke:black;"/>
   <text width="230" height="20" x="896" y="563" style="fill:black;" font-family="Arial" font-size="16px">EMPLOYEE_ID</text>
   <rect width="230" height="20" x="891" y="569" style="fill:none;stroke:black;"/>
   <text width="230" height="20" x="896" y="583" style="fill:black;" font-family="Arial" font-size="16px">EMPLOYEE_FIRSTNAME</text>
   <rect width="230" height="20" x="891" y="589" style="fill:none;stroke:black;"/>
   <text width="230" height="20" x="896" y="603" style="fill:black;" font-family="Arial" font-size="16px">EMPLOYEE_LASTNAME</text>
   <rect width="230" height="20" x="891" y="609" style="fill:none;stroke:black;"/>
   <text width="230" height="20" x="896" y="623" style="fill:black;" font-family="Arial" font-size="16px">EMPLOYEE_PRIVATE_EMAIL</text>
   <rect width="230" height="20" x="891" y="629" style="fill:none;stroke:black;"/>
   <text width="230" height="20" x="896" y="643" style="fill:black;" font-family="Arial" font-size="16px">EMPLOYEE_WORK_EMAIL</text>
   <rect width="230" height="20" x="891" y="649" style="fill:none;stroke:black;"/>
   <text width="230" height="20" x="896" y="663" style="fill:black;" font-family="Arial" font-size="16px">EMPLOYEE_PHONENUMBER</text>
   <rect width="230" height="20" x="891" y="669" style="fill:none;stroke:black;"/>
   <text width="230" height="20" x="896" y="683" style="fill:black;" font-family="Arial" font-size="16px">EMPLOYEE_BIRTHDAY</text>
   <rect width="230" height="20" x="891" y="689" style="fill:none;stroke:black;"/>
   <text width="230" height="20" x="896" y="703" style="fill:black;" font-family="Arial" font-size="16px">EMPLOYEE_FUNCTION</text>
   <rect width="230" height="20" x="891" y="709" style="fill:none;stroke:black;"/>
   <text width="230" height="20" x="896" y="723" style="fill:black;" font-family="Arial" font-size="16px">EMPLOYEE_SALARY</text>
   <rect width="230" height="20" x="891" y="729" style="fill:none;stroke:black;"/>
   <text width="230" height="20" x="896" y="743" style="fill:black;" font-family="Arial" font-size="16px">EMPLOYEE_PASSWORD</text>
   <rect width="215" height="20" x="388" y="20" style="fill:#007;stroke:black;"/>
   <text width="215" height="20" x="393" y="34" style="fill:#fff;" font-family="Arial" font-size="16px"> employee_reviews</text>
   <rect width="215" height="20" x="388" y="40" style="fill:#aea;stroke:black;"/>
   <text width="215" height="20" x="393" y="54" style="fill:black;" font-family="Arial" font-size="16px">REVIEW_ID</text>
   <rect width="215" height="20" x="388" y="60" style="fill:none;stroke:black;"/>
   <text width="215" height="20" x="393" y="74" style="fill:black;" font-family="Arial" font-size="16px">REVIEW_PATIENT_ID</text>
   <rect width="215" height="20" x="388" y="80" style="fill:none;stroke:black;"/>
   <text width="215" height="20" x="393" y="94" style="fill:black;" font-family="Arial" font-size="16px">REVIEW_APPOINTMENT_ID</text>
   <rect width="215" height="20" x="388" y="100" style="fill:none;stroke:black;"/>
   <text width="215" height="20" x="393" y="114" style="fill:black;" font-family="Arial" font-size="16px">REVIEW_DATE</text>
   <rect width="215" height="20" x="388" y="120" style="fill:none;stroke:black;"/>
   <text width="215" height="20" x="393" y="134" style="fill:black;" font-family="Arial" font-size="16px">RATING</text>
   <rect width="215" height="20" x="388" y="140" style="fill:none;stroke:black;"/>
   <text width="215" height="20" x="393" y="154" style="fill:black;" font-family="Arial" font-size="16px">REVIEW_TEXT</text>
   <rect width="216" height="20" x="121" y="445" style="fill:#007;stroke:black;"/>
   <text width="216" height="20" x="126" y="459" style="fill:#fff;" font-family="Arial" font-size="16px"> insurance_details</text>
   <rect width="216" height="20" x="121" y="465" style="fill:#aea;stroke:black;"/>
   <text width="216" height="20" x="126" y="479" style="fill:black;" font-family="Arial" font-size="16px">INSURANCE_ID</text>
   <rect width="216" height="20" x="121" y="485" style="fill:none;stroke:black;"/>
   <text width="216" height="20" x="126" y="499" style="fill:black;" font-family="Arial" font-size="16px">INSURANCE_PATIENT_ID</text>
   <rect width="216" height="20" x="121" y="505" style="fill:none;stroke:black;"/>
   <text width="216" height="20" x="126" y="519" style="fill:black;" font-family="Arial" font-size="16px">INSURANCE_PROVIDER</text>
   <rect width="216" height="20" x="121" y="525" style="fill:none;stroke:black;"/>
   <text width="216" height="20" x="126" y="539" style="fill:black;" font-family="Arial" font-size="16px">POLICY_NUMBER</text>
   <rect width="216" height="20" x="121" y="545" style="fill:none;stroke:black;"/>
   <text width="216" height="20" x="126" y="559" style="fill:black;" font-family="Arial" font-size="16px">COVERAGE_DETAILS</text>
   <rect width="216" height="20" x="121" y="565" style="fill:none;stroke:black;"/>
   <text width="216" height="20" x="126" y="579" style="fill:black;" font-family="Arial" font-size="16px">INSURANCE_START_DATE</text>
   <rect width="216" height="20" x="121" y="585" style="fill:none;stroke:black;"/>
   <text width="216" height="20" x="126" y="599" style="fill:black;" font-family="Arial" font-size="16px">INSURANCE_EXPIRY_DATE</text>
   <rect width="203" height="20" x="116" y="139" style="fill:#007;stroke:black;"/>
   <text width="203" height="20" x="121" y="153" style="fill:#fff;" font-family="Arial" font-size="16px"> messages</text>
   <rect width="203" height="20" x="116" y="159" style="fill:#aea;stroke:black;"/>
   <text width="203" height="20" x="121" y="173" style="fill:black;" font-family="Arial" font-size="16px">MESSAGE_ID</text>
   <rect width="203" height="20" x="116" y="179" style="fill:none;stroke:black;"/>
   <text width="203" height="20" x="121" y="193" style="fill:black;" font-family="Arial" font-size="16px">MESSAGE_PATIENT_ID</text>
   <rect width="203" height="20" x="116" y="199" style="fill:none;stroke:black;"/>
   <text width="203" height="20" x="121" y="213" style="fill:black;" font-family="Arial" font-size="16px">MESSAGE_EMPLOYEE_ID</text>
   <rect width="203" height="20" x="116" y="219" style="fill:none;stroke:black;"/>
   <text width="203" height="20" x="121" y="233" style="fill:black;" font-family="Arial" font-size="16px">MESSAGE_CONTENT</text>
   <rect width="203" height="20" x="116" y="239" style="fill:none;stroke:black;"/>
   <text width="203" height="20" x="121" y="253" style="fill:black;" font-family="Arial" font-size="16px">MESSAGE_SENDER</text>
   <rect width="203" height="20" x="116" y="259" style="fill:none;stroke:black;"/>
   <text width="203" height="20" x="121" y="273" style="fill:black;" font-family="Arial" font-size="16px">MESSAGE_TIMESTAMP</text>
   <rect width="209" height="20" x="522" y="534" style="fill:#007;stroke:black;"/>
   <text width="209" height="20" x="527" y="548" style="fill:#fff;" font-family="Arial" font-size="16px"> patients</text>
   <rect width="209" height="20" x="522" y="554" style="fill:#aea;stroke:black;"/>
   <text width="209" height="20" x="527" y="568" style="fill:black;" font-family="Arial" font-size="16px">PATIENT_ID</text>
   <rect width="209" height="20" x="522" y="574" style="fill:none;stroke:black;"/>
   <text width="209" height="20" x="527" y="588" style="fill:black;" font-family="Arial" font-size="16px">PATIENT_FIRSTNAME</text>
   <rect width="209" height="20" x="522" y="594" style="fill:none;stroke:black;"/>
   <text width="209" height="20" x="527" y="608" style="fill:black;" font-family="Arial" font-size="16px">PATIENT_LASTNAME</text>
   <rect width="209" height="20" x="522" y="614" style="fill:none;stroke:black;"/>
   <text width="209" height="20" x="527" y="628" style="fill:black;" font-family="Arial" font-size="16px">PATIENT_EMAIL</text>
   <rect width="209" height="20" x="522" y="634" style="fill:none;stroke:black;"/>
   <text width="209" height="20" x="527" y="648" style="fill:black;" font-family="Arial" font-size="16px">PATIENT_PHONENUMBER</text>
   <rect width="209" height="20" x="522" y="654" style="fill:none;stroke:black;"/>
   <text width="209" height="20" x="527" y="668" style="fill:black;" font-family="Arial" font-size="16px">PATIENT_BIRTHDATE</text>
   <rect width="209" height="20" x="522" y="674" style="fill:none;stroke:black;"/>
   <text width="209" height="20" x="527" y="688" style="fill:black;" font-family="Arial" font-size="16px">PATIENT_PASSWORD</text>
   <rect width="250" height="20" x="1166" y="120" style="fill:#007;stroke:black;"/>
   <text width="250" height="20" x="1171" y="134" style="fill:#fff;" font-family="Arial" font-size="16px"> treatment_history</text>
   <rect width="250" height="20" x="1166" y="140" style="fill:#aea;stroke:black;"/>
   <text width="250" height="20" x="1171" y="154" style="fill:black;" font-family="Arial" font-size="16px">TREATMENT_ID</text>
   <rect width="250" height="20" x="1166" y="160" style="fill:none;stroke:black;"/>
   <text width="250" height="20" x="1171" y="174" style="fill:black;" font-family="Arial" font-size="16px">TREATMENT_APPOINTMENT_ID</text>
   <rect width="250" height="20" x="1166" y="180" style="fill:none;stroke:black;"/>
   <text width="250" height="20" x="1171" y="194" style="fill:black;" font-family="Arial" font-size="16px">TREATMENT_PATIENT_ID</text>
   <rect width="250" height="20" x="1166" y="200" style="fill:none;stroke:black;"/>
   <text width="250" height="20" x="1171" y="214" style="fill:black;" font-family="Arial" font-size="16px">TREATMENT_EMPLOYEE_ID</text>
   <rect width="250" height="20" x="1166" y="220" style="fill:none;stroke:black;"/>
   <text width="250" height="20" x="1171" y="234" style="fill:black;" font-family="Arial" font-size="16px">TREATMENT_DESCRIPTION</text>
   <rect width="250" height="20" x="1166" y="240" style="fill:none;stroke:black;"/>
   <text width="250" height="20" x="1171" y="254" style="fill:black;" font-family="Arial" font-size="16px">TREATMENT_DATE</text>
</svg>
